<?xml version="1.0" encoding="UTF-8"?>
<svg version="1.1" xmlns="http://www.w3.org/2000/svg" width="138" height="176">
<path d="M0 0 C6.48716307 3.53845258 12.69942437 6.94559135 18.8125 11 C20.28330587 11.96307746 21.75468973 12.92527263 23.2265625 13.88671875 C23.99774414 14.39122559 24.76892578 14.89573242 25.56347656 15.41552734 C29.91746789 18.24693052 34.30325573 21.02826293 38.6875 23.8125 C39.61344971 24.40095703 40.53939941 24.98941406 41.4934082 25.59570312 C43.38528806 26.79789121 45.27729718 27.9998759 47.16943359 29.20166016 C51.78134224 32.1317377 56.39055701 35.06604578 61 38 C62.83331992 39.16668774 64.66665327 40.33335439 66.5 41.5 C83 52 83 52 99.5 62.5 C100.40927246 63.0784668 101.31854492 63.65693359 102.25537109 64.25292969 C104.07139201 65.40890244 105.88683119 66.56578965 107.70166016 67.72363281 C112.54526301 70.81202908 117.40070558 73.87960848 122.2734375 76.921875 C123.294375 77.56253906 124.3153125 78.20320313 125.3671875 78.86328125 C127.34012447 80.10085081 129.31658433 81.3328256 131.296875 82.55859375 C132.17601562 83.11160156 133.05515625 83.66460937 133.9609375 84.234375 C134.74259277 84.72131836 135.52424805 85.20826172 136.32958984 85.70996094 C136.8808252 86.13567383 137.43206055 86.56138672 138 87 C138 87.66 138 88.32 138 89 C136.32958984 90.29003906 136.32958984 90.29003906 133.9609375 91.765625 C133.08179688 92.31863281 132.20265625 92.87164062 131.296875 93.44140625 C130.33265625 94.03824219 129.3684375 94.63507813 128.375 95.25 C126.3410286 96.52585479 124.30717768 97.80190168 122.2734375 99.078125 C121.22768555 99.73103516 120.18193359 100.38394531 119.10449219 101.05664062 C114.38562697 104.01057009 109.69331528 107.00571066 105 110 C103.1668144 111.16689879 101.33348048 112.3335646 99.5 113.5 C98.5925 114.0775 97.685 114.655 96.75 115.25 C79.33333333 126.33333333 61.91666667 137.41666667 44.5 148.5 C43.59121094 149.07838623 42.68242188 149.65677246 41.74609375 150.25268555 C39.92602281 151.41078012 38.10571308 152.56849948 36.28515625 153.72583008 C31.4968091 156.77050096 26.71367082 159.82297618 21.9375 162.88671875 C20.94363281 163.52287109 19.94976563 164.15902344 18.92578125 164.81445312 C17.02580054 166.03079592 15.12727539 167.24941648 13.23046875 168.47070312 C12.37066406 169.02048828 11.51085937 169.57027344 10.625 170.13671875 C9.87476563 170.61842529 9.12453125 171.10013184 8.3515625 171.59643555 C5.64918792 173.20938732 2.81488071 174.59255964 0 176 C0 117.92 0 59.84 0 0 Z " fill="#BCF458" transform="translate(0,0)"/>
</svg>
